<svg width="289" height="308" version="1.1" xmlns="http://www.w3.org/2000/svg" desc="Created with imagetracer.js version 1.2.6" ><path fill="rgb(0,0,0)" stroke="rgb(0,0,0)" stroke-width="1" opacity="0" d="M 0 0 L 61 0.5 Q 40.4 8.4 28 24.5 Q 3.9 53.9 0.5 104 L 0 0 Z " /><path fill="rgb(0,0,0)" stroke="rgb(0,0,0)" stroke-width="1" opacity="0" d="M 74.5 0 L 289 0 L 289 170.5 L 288 170.5 L 285 160.5 L 272.5 146 L 244.5 129 L 207.5 116 L 184.5 104 Q 149.3 80.7 121 50.5 Q 105 34 92 14.5 L 81.5 4 L 74.5 1 L 74.5 0 Z " /><path fill="rgb(0,0,0)" stroke="rgb(0,0,0)" stroke-width="1" opacity="0" d="M 71.5 68 L 77.5 68 L 89.5 71 L 112.5 84 Q 137.1 102.4 157 125.5 L 196 166.5 Q 200.5 171 199 181.5 Q 194.1 193.1 184.5 200 Q 168.6 215.1 137.5 215 L 124.5 212 Q 116.1 208.9 111 202.5 Q 105.9 196.1 104 186.5 L 104 166.5 Q 107.1 148.6 113 133.5 L 107 138.5 L 86 167.5 L 78 183.5 L 75 194.5 L 75 207.5 Q 79 230.5 94.5 242 Q 107 253 125.5 258 L 135.5 260 L 143.5 260 L 144.5 261 L 174.5 261 L 175.5 260 L 184.5 260 L 205.5 256 L 230.5 245 Q 255.9 229.9 275 208.5 L 285 194.5 L 288.5 184 L 289 308 L 0 308 L 0 152.5 L 1 152.5 L 3 169.5 L 10 192.5 L 27 228.5 Q 52.9 272.6 88.5 307 L 90 306.5 Q 60.7 262.8 41 209.5 L 36 193.5 L 30 166.5 Q 31.8 160.3 29 158.5 L 29 134.5 L 30 133.5 L 32 115.5 L 37 98.5 Q 42.2 85.2 52.5 77 Q 60 70.5 71.5 68 Z " /><path fill="rgb(255,255,255)" stroke="rgb(255,255,255)" stroke-width="1" opacity="0.49411764705882355" d="M 61.5 0 L 65 0.5 L 61.5 1 L 61.5 0 Z " /><path fill="rgb(255,255,255)" stroke="rgb(255,255,255)" stroke-width="1" opacity="0.49411764705882355" d="M 58.5 1 L 60 1.5 L 56.5 3 L 56.5 2 L 58.5 1 Z " /><path fill="rgb(255,255,255)" stroke="rgb(255,255,255)" stroke-width="1" opacity="0.49411764705882355" d="M 75.5 1 L 80 3.5 L 78.5 3 Q 74.8 2.8 75.5 1 Z " /><path fill="rgb(255,255,255)" stroke="rgb(255,255,255)" stroke-width="1" opacity="0.49411764705882355" d="M 52.5 4 L 51.5 6 L 49.5 7 L 50.5 5 L 52.5 4 Z " /><path fill="rgb(255,255,255)" stroke="rgb(255,255,255)" stroke-width="1" opacity="0.49411764705882355" d="M 81.5 4 L 95 18.5 L 91 15.5 L 81.5 4 Z " /><path fill="rgb(255,255,255)" stroke="rgb(255,255,255)" stroke-width="1" opacity="0.49411764705882355" d="M 47.5 7 L 46.5 9 L 47.5 7 Z " /><path fill="rgb(255,255,255)" stroke="rgb(255,255,255)" stroke-width="1" opacity="0.49411764705882355" d="M 44.5 9 L 41.5 13 L 28.5 25 L 40.5 12 L 44.5 9 Z " /><path fill="rgb(255,255,255)" stroke="rgb(255,255,255)" stroke-width="1" opacity="0.49411764705882355" d="M 95.5 20 L 102 27.5 L 98 24.5 L 95.5 20 Z " /><path fill="rgb(255,255,255)" stroke="rgb(255,255,255)" stroke-width="1" opacity="0.49411764705882355" d="M 27.5 26 L 25 29.5 L 18.5 40 L 19 38.5 L 27.5 26 Z " /><path fill="rgb(255,255,255)" stroke="rgb(255,255,255)" stroke-width="1" opacity="0.49411764705882355" d="M 102.5 29 L 112 39.5 L 106 34.5 L 102.5 29 Z " /><path fill="rgb(255,255,255)" stroke="rgb(255,255,255)" stroke-width="1" opacity="0.49411764705882355" d="M 112.5 41 L 120.5 50 L 112.5 41 Z " /><path fill="rgb(255,255,255)" stroke="rgb(255,255,255)" stroke-width="1" opacity="0.49411764705882355" d="M 121.5 51 L 147 75.5 L 137.5 67 L 121.5 51 Z " /><path fill="rgb(255,255,255)" stroke="rgb(255,255,255)" stroke-width="1" opacity="0.49411764705882355" d="M 7.5 65 L 8 67.5 L 7 67.5 L 7.5 65 Z " /><path fill="rgb(255,255,255)" stroke="rgb(255,255,255)" stroke-width="1" opacity="0.49411764705882355" d="M 68.5 68 L 71 68.5 L 68.5 69 L 68.5 68 Z " /><path fill="rgb(255,255,255)" stroke="rgb(255,255,255)" stroke-width="1" opacity="0.49411764705882355" d="M 78.5 68 L 82 68.5 L 78.5 69 L 78.5 68 Z " /><path fill="rgb(255,255,255)" stroke="rgb(255,255,255)" stroke-width="1" opacity="0.49411764705882355" d="M 83.5 69 L 86 69.5 L 83.5 70 L 83.5 69 Z " /><path fill="rgb(255,255,255)" stroke="rgb(255,255,255)" stroke-width="1" opacity="0.49411764705882355" d="M 62.5 70 L 64 70.5 L 59.5 73 L 60.5 71 L 62.5 70 Z " /><path fill="rgb(255,255,255)" stroke="rgb(255,255,255)" stroke-width="1" opacity="0.49411764705882355" d="M 92.5 72 L 101 76.5 L 99.5 76 L 92.5 73 L 92.5 72 Z " /><path fill="rgb(255,255,255)" stroke="rgb(255,255,255)" stroke-width="1" opacity="0.49411764705882355" d="M 57.5 73 L 56.5 75 L 45.5 84 L 52.5 76 L 57.5 73 Z " /><path fill="rgb(255,255,255)" stroke="rgb(255,255,255)" stroke-width="1" opacity="0.49411764705882355" d="M 148.5 76 L 159 85.5 L 154.5 82 L 148.5 76 Z " /><path fill="rgb(255,255,255)" stroke="rgb(255,255,255)" stroke-width="1" opacity="0.49411764705882355" d="M 4.5 77 L 5 79.5 L 4 79.5 L 4.5 77 Z " /><path fill="rgb(255,255,255)" stroke="rgb(255,255,255)" stroke-width="1" opacity="0.49411764705882355" d="M 102.5 77 L 106 79.5 L 104.5 79 L 102.5 77 Z " /><path fill="rgb(255,255,255)" stroke="rgb(255,255,255)" stroke-width="1" opacity="0.49411764705882355" d="M 107.5 80 L 108.5 82 L 107.5 80 Z " /><path fill="rgb(255,255,255)" stroke="rgb(255,255,255)" stroke-width="1" opacity="0.49411764705882355" d="M 3.5 82 L 4 84.5 L 3 84.5 L 3.5 82 Z " /><path fill="rgb(255,255,255)" stroke="rgb(255,255,255)" stroke-width="1" opacity="0.49411764705882355" d="M 110.5 82 L 111.5 84 L 110.5 82 Z " /><path fill="rgb(255,255,255)" stroke="rgb(255,255,255)" stroke-width="1" opacity="0.49411764705882355" d="M 113.5 84 L 115.5 87 L 113.5 84 Z " /><path fill="rgb(255,255,255)" stroke="rgb(255,255,255)" stroke-width="1" opacity="0.49411764705882355" d="M 44.5 85 L 43 87.5 L 37.5 98 L 37 96.5 L 44.5 85 Z " /><path fill="rgb(255,255,255)" stroke="rgb(255,255,255)" stroke-width="1" opacity="0.49411764705882355" d="M 160.5 86 L 163.5 90 L 160.5 86 Z " /><path fill="rgb(255,255,255)" stroke="rgb(255,255,255)" stroke-width="1" opacity="0.49411764705882355" d="M 2.5 87 L 3 91.5 L 2 91.5 L 2.5 87 Z " /><path fill="rgb(255,255,255)" stroke="rgb(255,255,255)" stroke-width="1" opacity="0.49411764705882355" d="M 117.5 87 L 127 95.5 L 121.5 91 L 117.5 87 Z " /><path fill="rgb(255,255,255)" stroke="rgb(255,255,255)" stroke-width="1" opacity="0.49411764705882355" d="M 165.5 90 L 167.5 93 L 165.5 90 Z " /><path fill="rgb(255,255,255)" stroke="rgb(255,255,255)" stroke-width="1" opacity="0.49411764705882355" d="M 169.5 93 L 175 97.5 L 172.5 96 L 169.5 93 Z " /><path fill="rgb(255,255,255)" stroke="rgb(255,255,255)" stroke-width="1" opacity="0.49411764705882355" d="M 1.5 94 L 2 99.5 L 1 99.5 L 1.5 94 Z " /><path fill="rgb(255,255,255)" stroke="rgb(255,255,255)" stroke-width="1" opacity="0.49411764705882355" d="M 128.5 96 L 156.5 125 L 128.5 96 Z " /><path fill="rgb(255,255,255)" stroke="rgb(255,255,255)" stroke-width="1" opacity="0.49411764705882355" d="M 176.5 98 L 177.5 100 L 176.5 98 Z " /><path fill="rgb(255,255,255)" stroke="rgb(255,255,255)" stroke-width="1" opacity="0.49411764705882355" d="M 179.5 100 L 180.5 102 L 179.5 100 Z " /><path fill="rgb(255,255,255)" stroke="rgb(255,255,255)" stroke-width="1" opacity="0.49411764705882355" d="M 182.5 102 L 183.5 104 L 182.5 102 Z " /><path fill="rgb(255,255,255)" stroke="rgb(255,255,255)" stroke-width="1" opacity="0.49411764705882355" d="M 0.5 104 L 1 113.5 L 0 113.5 L 0.5 104 Z " /><path fill="rgb(255,255,255)" stroke="rgb(255,255,255)" stroke-width="1" opacity="0.49411764705882355" d="M 185.5 104 L 189 106.5 L 187.5 106 L 185.5 104 Z " /><path fill="rgb(255,255,255)" stroke="rgb(255,255,255)" stroke-width="1" opacity="0.49411764705882355" d="M 33.5 108 L 34 110.5 L 33 110.5 L 33.5 108 Z " /><path fill="rgb(255,255,255)" stroke="rgb(255,255,255)" stroke-width="1" opacity="0.49411764705882355" d="M 192.5 108 L 205 114.5 L 203.5 115 L 193.5 110 L 192.5 108 Z " /><path fill="rgb(255,255,255)" stroke="rgb(255,255,255)" stroke-width="1" opacity="0.49411764705882355" d="M 32.5 112 L 33 114.5 L 32 114.5 L 32.5 112 Z " /><path fill="rgb(255,255,255)" stroke="rgb(255,255,255)" stroke-width="1" opacity="0.49411764705882355" d="M 208.5 116 L 212 117.5 L 210.5 118 L 208.5 116 Z " /><path fill="rgb(255,255,255)" stroke="rgb(255,255,255)" stroke-width="1" opacity="0.49411764705882355" d="M 31.5 117 L 32 119.5 L 31 119.5 L 31.5 117 Z " /><path fill="rgb(255,255,255)" stroke="rgb(255,255,255)" stroke-width="1" opacity="0.49411764705882355" d="M 213.5 118 L 217 119.5 L 215.5 120 L 213.5 118 Z " /><path fill="rgb(255,255,255)" stroke="rgb(255,255,255)" stroke-width="1" opacity="0.49411764705882355" d="M 30.5 122 L 31 126.5 L 30 126.5 L 30.5 122 Z " /><path fill="rgb(255,255,255)" stroke="rgb(255,255,255)" stroke-width="1" opacity="0.49411764705882355" d="M 230.5 124 L 237 126.5 L 235.5 127 L 230.5 125 L 230.5 124 Z " /><path fill="rgb(255,255,255)" stroke="rgb(255,255,255)" stroke-width="1" opacity="0.49411764705882355" d="M 157.5 126 L 185.5 155 L 157.5 126 Z " /><path fill="rgb(255,255,255)" stroke="rgb(255,255,255)" stroke-width="1" opacity="0.49411764705882355" d="M 29.5 129 L 30 133.5 L 29 133.5 L 29.5 129 Z " /><path fill="rgb(255,255,255)" stroke="rgb(255,255,255)" stroke-width="1" opacity="0.49411764705882355" d="M 243.5 129 L 256 135.5 L 254.5 135 L 243.5 130 L 243.5 129 Z " /><path fill="rgb(255,255,255)" stroke="rgb(255,255,255)" stroke-width="1" opacity="0.49411764705882355" d="M 112.5 133 L 113 135.5 Q 110.5 133.7 108 138.5 L 103.5 144 L 107 139.5 L 112.5 133 Z " /><path fill="rgb(255,255,255)" stroke="rgb(255,255,255)" stroke-width="1" opacity="0.49411764705882355" d="M 257.5 136 L 261 138.5 L 259.5 138 L 257.5 136 Z " /><path fill="rgb(255,255,255)" stroke="rgb(255,255,255)" stroke-width="1" opacity="0.49411764705882355" d="M 28.5 137 L 29 155.5 L 28 155.5 L 28.5 137 Z " /><path fill="rgb(255,255,255)" stroke="rgb(255,255,255)" stroke-width="1" opacity="0.49411764705882355" d="M 262.5 139 L 263.5 141 L 262.5 139 Z " /><path fill="rgb(255,255,255)" stroke="rgb(255,255,255)" stroke-width="1" opacity="0.49411764705882355" d="M 265.5 141 L 266.5 143 L 265.5 141 Z " /><path fill="rgb(255,255,255)" stroke="rgb(255,255,255)" stroke-width="1" opacity="0.49411764705882355" d="M 0.5 142 L 1 151.5 L 0 151.5 L 0.5 142 Z " /><path fill="rgb(255,255,255)" stroke="rgb(255,255,255)" stroke-width="1" opacity="0.49411764705882355" d="M 268.5 143 L 281 154.5 L 283 157.5 L 280 155.5 L 272.5 147 L 268.5 143 Z " /><path fill="rgb(255,255,255)" stroke="rgb(255,255,255)" stroke-width="1" opacity="0.49411764705882355" d="M 102.5 145 L 100 148.5 L 94.5 156 L 96 153.5 L 102.5 145 Z " /><path fill="rgb(255,255,255)" stroke="rgb(255,255,255)" stroke-width="1" opacity="0.49411764705882355" d="M 107.5 149 L 108 151.5 L 107 151.5 L 107.5 149 Z " /><path fill="rgb(255,255,255)" stroke="rgb(255,255,255)" stroke-width="1" opacity="0.49411764705882355" d="M 106.5 153 L 107 155.5 L 106 155.5 L 106.5 153 Z " /><path fill="rgb(255,255,255)" stroke="rgb(255,255,255)" stroke-width="1" opacity="0.49411764705882355" d="M 1.5 154 L 2 158.5 L 1 158.5 L 1.5 154 Z " /><path fill="rgb(255,255,255)" stroke="rgb(255,255,255)" stroke-width="1" opacity="0.49411764705882355" d="M 186.5 156 L 197 166.5 L 199 171.5 L 198 171.5 L 196 166.5 L 186.5 156 Z " /><path fill="rgb(255,255,255)" stroke="rgb(255,255,255)" stroke-width="1" opacity="0.49411764705882355" d="M 93.5 157 L 92.5 159 L 93.5 157 Z " /><path fill="rgb(255,255,255)" stroke="rgb(255,255,255)" stroke-width="1" opacity="0.49411764705882355" d="M 105.5 157 L 106 159.5 L 105 159.5 L 105.5 157 Z " /><path fill="rgb(255,255,255)" stroke="rgb(255,255,255)" stroke-width="1" opacity="0.49411764705882355" d="M 29.5 159 L 30 164.5 L 29 164.5 L 29.5 159 Z " /><path fill="rgb(255,255,255)" stroke="rgb(255,255,255)" stroke-width="1" opacity="0.49411764705882355" d="M 283.5 159 L 287 165.5 L 286 165.5 L 283.5 159 Z " /><path fill="rgb(255,255,255)" stroke="rgb(255,255,255)" stroke-width="1" opacity="0.49411764705882355" d="M 91.5 160 L 90.5 162 L 91.5 160 Z " /><path fill="rgb(255,255,255)" stroke="rgb(255,255,255)" stroke-width="1" opacity="0.49411764705882355" d="M 2.5 161 L 3 164.5 L 2 164.5 L 2.5 161 Z " /><path fill="rgb(255,255,255)" stroke="rgb(255,255,255)" stroke-width="1" opacity="0.49411764705882355" d="M 104.5 162 L 105 165.5 L 104 165.5 L 104.5 162 Z " /><path fill="rgb(255,255,255)" stroke="rgb(255,255,255)" stroke-width="1" opacity="0.49411764705882355" d="M 89.5 163 L 88.5 165 L 89.5 163 Z " /><path fill="rgb(255,255,255)" stroke="rgb(255,255,255)" stroke-width="1" opacity="0.49411764705882355" d="M 3.5 166 L 4 169.5 L 3 169.5 L 3.5 166 Z " /><path fill="rgb(255,255,255)" stroke="rgb(255,255,255)" stroke-width="1" opacity="0.49411764705882355" d="M 87.5 166 L 87 167.5 L 85.5 170 L 86 168.5 L 87.5 166 Z " /><path fill="rgb(255,255,255)" stroke="rgb(255,255,255)" stroke-width="1" opacity="0.49411764705882355" d="M 30.5 167 L 31 170.5 L 30 170.5 L 30.5 167 Z " /><path fill="rgb(255,255,255)" stroke="rgb(255,255,255)" stroke-width="1" opacity="0.49411764705882355" d="M 287.5 167 L 288 169.5 L 287 169.5 L 287.5 167 Z " /><path fill="rgb(255,255,255)" stroke="rgb(255,255,255)" stroke-width="1" opacity="0.49411764705882355" d="M 103.5 169 L 104 184.5 L 103 184.5 L 103.5 169 Z " /><path fill="rgb(255,255,255)" stroke="rgb(255,255,255)" stroke-width="1" opacity="0.49411764705882355" d="M 4.5 171 L 5 173.5 L 4 173.5 L 4.5 171 Z " /><path fill="rgb(255,255,255)" stroke="rgb(255,255,255)" stroke-width="1" opacity="0.49411764705882355" d="M 288.5 171 L 289 183.5 L 288 183.5 L 288.5 171 Z " /><path fill="rgb(255,255,255)" stroke="rgb(255,255,255)" stroke-width="1" opacity="0.49411764705882355" d="M 31.5 173 L 32 176.5 L 31 176.5 L 31.5 173 Z " /><path fill="rgb(255,255,255)" stroke="rgb(255,255,255)" stroke-width="1" opacity="0.49411764705882355" d="M 199.5 173 L 200 180.5 L 199 180.5 L 199.5 173 Z " /><path fill="rgb(255,255,255)" stroke="rgb(255,255,255)" stroke-width="1" opacity="0.49411764705882355" d="M 5.5 175 L 6 177.5 L 5 177.5 L 5.5 175 Z " /><path fill="rgb(255,255,255)" stroke="rgb(255,255,255)" stroke-width="1" opacity="0.49411764705882355" d="M 32.5 178 L 33 180.5 L 32 180.5 L 32.5 178 Z " /><path fill="rgb(255,255,255)" stroke="rgb(255,255,255)" stroke-width="1" opacity="0.49411764705882355" d="M 79.5 181 L 80 182.5 L 78.5 185 L 78 183.5 L 79.5 181 Z " /><path fill="rgb(255,255,255)" stroke="rgb(255,255,255)" stroke-width="1" opacity="0.49411764705882355" d="M 33.5 182 L 34 184.5 L 33 184.5 L 33.5 182 Z " /><path fill="rgb(255,255,255)" stroke="rgb(255,255,255)" stroke-width="1" opacity="0.49411764705882355" d="M 198.5 182 L 199 183.5 Q 194.3 193.8 185.5 200 L 194 190.5 L 198.5 182 Z " /><path fill="rgb(255,255,255)" stroke="rgb(255,255,255)" stroke-width="1" opacity="0.49411764705882355" d="M 287.5 185 L 288 187.5 L 287 187.5 L 287.5 185 Z " /><path fill="rgb(255,255,255)" stroke="rgb(255,255,255)" stroke-width="1" opacity="0.49411764705882355" d="M 34.5 186 L 35 188.5 L 34 188.5 L 34.5 186 Z " /><path fill="rgb(255,255,255)" stroke="rgb(255,255,255)" stroke-width="1" opacity="0.49411764705882355" d="M 104.5 187 L 105 189.5 L 104 189.5 L 104.5 187 Z " /><path fill="rgb(255,255,255)" stroke="rgb(255,255,255)" stroke-width="1" opacity="0.49411764705882355" d="M 76.5 189 L 77 191.5 L 76 191.5 L 76.5 189 Z " /><path fill="rgb(255,255,255)" stroke="rgb(255,255,255)" stroke-width="1" opacity="0.49411764705882355" d="M 35.5 190 L 36 192.5 L 35 192.5 L 35.5 190 Z " /><path fill="rgb(255,255,255)" stroke="rgb(255,255,255)" stroke-width="1" opacity="0.49411764705882355" d="M 285.5 191 L 286 192.5 L 283.5 196 L 284 194.5 L 285.5 191 Z " /><path fill="rgb(255,255,255)" stroke="rgb(255,255,255)" stroke-width="1" opacity="0.49411764705882355" d="M 75.5 194 L 76 207.5 L 75 207.5 L 75.5 194 Z " /><path fill="rgb(255,255,255)" stroke="rgb(255,255,255)" stroke-width="1" opacity="0.49411764705882355" d="M 106.5 194 L 111 201.5 L 108 199.5 L 106.5 194 Z " /><path fill="rgb(255,255,255)" stroke="rgb(255,255,255)" stroke-width="1" opacity="0.49411764705882355" d="M 37.5 197 L 39 202.5 L 38 202.5 L 37.5 197 Z " /><path fill="rgb(255,255,255)" stroke="rgb(255,255,255)" stroke-width="1" opacity="0.49411764705882355" d="M 282.5 197 L 281.5 199 L 282.5 197 Z " /><path fill="rgb(255,255,255)" stroke="rgb(255,255,255)" stroke-width="1" opacity="0.49411764705882355" d="M 183.5 200 L 181.5 203 L 183.5 200 Z " /><path fill="rgb(255,255,255)" stroke="rgb(255,255,255)" stroke-width="1" opacity="0.49411764705882355" d="M 280.5 200 L 279 202.5 Q 271.3 215.3 259.5 224 L 274 208.5 L 280.5 200 Z " /><path fill="rgb(255,255,255)" stroke="rgb(255,255,255)" stroke-width="1" opacity="0.49411764705882355" d="M 14.5 201 L 16 204.5 L 15 204.5 L 14.5 201 Z " /><path fill="rgb(255,255,255)" stroke="rgb(255,255,255)" stroke-width="1" opacity="0.49411764705882355" d="M 111.5 203 L 114.5 207 L 111.5 203 Z " /><path fill="rgb(255,255,255)" stroke="rgb(255,255,255)" stroke-width="1" opacity="0.49411764705882355" d="M 179.5 203 L 178.5 205 L 179.5 203 Z " /><path fill="rgb(255,255,255)" stroke="rgb(255,255,255)" stroke-width="1" opacity="0.49411764705882355" d="M 176.5 205 L 175.5 207 L 176.5 205 Z " /><path fill="rgb(255,255,255)" stroke="rgb(255,255,255)" stroke-width="1" opacity="0.49411764705882355" d="M 116.5 207 L 124 211.5 L 122.5 212 Q 117.5 210.5 116.5 207 Z " /><path fill="rgb(255,255,255)" stroke="rgb(255,255,255)" stroke-width="1" opacity="0.49411764705882355" d="M 76.5 209 L 77 212.5 L 76 212.5 L 76.5 209 Z " /><path fill="rgb(255,255,255)" stroke="rgb(255,255,255)" stroke-width="1" opacity="0.49411764705882355" d="M 41.5 210 L 43 213.5 L 42 213.5 L 41.5 210 Z " /><path fill="rgb(255,255,255)" stroke="rgb(255,255,255)" stroke-width="1" opacity="0.49411764705882355" d="M 19.5 212 L 23 218.5 L 21 217.5 L 19.5 212 Z " /><path fill="rgb(255,255,255)" stroke="rgb(255,255,255)" stroke-width="1" opacity="0.49411764705882355" d="M 159.5 212 L 162 212.5 L 159.5 213 L 159.5 212 Z " /><path fill="rgb(255,255,255)" stroke="rgb(255,255,255)" stroke-width="1" opacity="0.49411764705882355" d="M 155.5 213 L 158 213.5 L 155.5 214 L 155.5 213 Z " /><path fill="rgb(255,255,255)" stroke="rgb(255,255,255)" stroke-width="1" opacity="0.49411764705882355" d="M 77.5 214 L 78 216.5 L 77 216.5 L 77.5 214 Z " /><path fill="rgb(255,255,255)" stroke="rgb(255,255,255)" stroke-width="1" opacity="0.49411764705882355" d="M 132.5 214 L 137 214.5 L 132.5 215 L 132.5 214 Z " /><path fill="rgb(255,255,255)" stroke="rgb(255,255,255)" stroke-width="1" opacity="0.49411764705882355" d="M 147.5 214 L 153 214.5 L 147.5 215 L 147.5 214 Z " /><path fill="rgb(255,255,255)" stroke="rgb(255,255,255)" stroke-width="1" opacity="0.49411764705882355" d="M 44.5 218 L 46 221.5 L 45 221.5 L 44.5 218 Z " /><path fill="rgb(255,255,255)" stroke="rgb(255,255,255)" stroke-width="1" opacity="0.49411764705882355" d="M 46.5 223 L 48 226.5 L 47 226.5 L 46.5 223 Z " /><path fill="rgb(255,255,255)" stroke="rgb(255,255,255)" stroke-width="1" opacity="0.49411764705882355" d="M 25.5 224 L 29 229.5 L 27 228.5 L 25.5 224 Z " /><path fill="rgb(255,255,255)" stroke="rgb(255,255,255)" stroke-width="1" opacity="0.49411764705882355" d="M 257.5 224 L 253.5 229 L 257.5 224 Z " /><path fill="rgb(255,255,255)" stroke="rgb(255,255,255)" stroke-width="1" opacity="0.49411764705882355" d="M 82.5 227 L 95 241.5 L 86 233.5 L 82.5 227 Z " /><path fill="rgb(255,255,255)" stroke="rgb(255,255,255)" stroke-width="1" opacity="0.49411764705882355" d="M 48.5 228 L 50 231.5 L 49 231.5 L 48.5 228 Z " /><path fill="rgb(255,255,255)" stroke="rgb(255,255,255)" stroke-width="1" opacity="0.49411764705882355" d="M 251.5 229 L 248.5 233 L 233.5 243 L 234.5 241 L 251.5 229 Z " /><path fill="rgb(255,255,255)" stroke="rgb(255,255,255)" stroke-width="1" opacity="0.49411764705882355" d="M 29.5 231 L 32 234.5 L 30 233.5 L 29.5 231 Z " /><path fill="rgb(255,255,255)" stroke="rgb(255,255,255)" stroke-width="1" opacity="0.49411764705882355" d="M 51.5 235 L 54 240.5 L 53 240.5 L 51.5 235 Z " /><path fill="rgb(255,255,255)" stroke="rgb(255,255,255)" stroke-width="1" opacity="0.49411764705882355" d="M 32.5 236 L 37 242.5 L 35 241.5 L 32.5 236 Z " /><path fill="rgb(255,255,255)" stroke="rgb(255,255,255)" stroke-width="1" opacity="0.49411764705882355" d="M 96.5 242 L 98.5 245 L 96.5 242 Z " /><path fill="rgb(255,255,255)" stroke="rgb(255,255,255)" stroke-width="1" opacity="0.49411764705882355" d="M 231.5 243 L 230.5 245 L 226.5 247 L 227.5 245 L 231.5 243 Z " /><path fill="rgb(255,255,255)" stroke="rgb(255,255,255)" stroke-width="1" opacity="0.49411764705882355" d="M 37.5 244 L 38.5 246 L 37.5 244 Z " /><path fill="rgb(255,255,255)" stroke="rgb(255,255,255)" stroke-width="1" opacity="0.49411764705882355" d="M 100.5 245 L 105 248.5 L 103.5 248 L 100.5 245 Z " /><path fill="rgb(255,255,255)" stroke="rgb(255,255,255)" stroke-width="1" opacity="0.49411764705882355" d="M 56.5 246 L 68 268.5 L 66 267.5 L 56 247.5 L 56.5 246 Z " /><path fill="rgb(255,255,255)" stroke="rgb(255,255,255)" stroke-width="1" opacity="0.49411764705882355" d="M 39.5 247 L 46 255.5 L 43 253.5 L 39.5 247 Z " /><path fill="rgb(255,255,255)" stroke="rgb(255,255,255)" stroke-width="1" opacity="0.49411764705882355" d="M 106.5 249 L 110 251.5 L 108.5 251 L 106.5 249 Z " /><path fill="rgb(255,255,255)" stroke="rgb(255,255,255)" stroke-width="1" opacity="0.49411764705882355" d="M 215.5 251 L 217 251.5 L 213.5 253 L 213.5 252 L 215.5 251 Z " /><path fill="rgb(255,255,255)" stroke="rgb(255,255,255)" stroke-width="1" opacity="0.49411764705882355" d="M 113.5 253 L 117 254.5 L 115.5 255 L 113.5 253 Z " /><path fill="rgb(255,255,255)" stroke="rgb(255,255,255)" stroke-width="1" opacity="0.49411764705882355" d="M 203.5 255 L 206 255.5 L 203.5 256 L 203.5 255 Z " /><path fill="rgb(255,255,255)" stroke="rgb(255,255,255)" stroke-width="1" opacity="0.49411764705882355" d="M 121.5 256 L 124 256.5 L 121.5 257 L 121.5 256 Z " /><path fill="rgb(255,255,255)" stroke="rgb(255,255,255)" stroke-width="1" opacity="0.49411764705882355" d="M 199.5 256 L 202 256.5 L 199.5 257 L 199.5 256 Z " /><path fill="rgb(255,255,255)" stroke="rgb(255,255,255)" stroke-width="1" opacity="0.49411764705882355" d="M 46.5 257 L 55 267.5 L 51 264.5 L 46.5 257 Z " /><path fill="rgb(255,255,255)" stroke="rgb(255,255,255)" stroke-width="1" opacity="0.49411764705882355" d="M 125.5 257 L 128 257.5 L 125.5 258 L 125.5 257 Z " /><path fill="rgb(255,255,255)" stroke="rgb(255,255,255)" stroke-width="1" opacity="0.49411764705882355" d="M 193.5 257 L 197 257.5 L 193.5 258 L 193.5 257 Z " /><path fill="rgb(255,255,255)" stroke="rgb(255,255,255)" stroke-width="1" opacity="0.49411764705882355" d="M 130.5 258 L 133 258.5 L 130.5 259 L 130.5 258 Z " /><path fill="rgb(255,255,255)" stroke="rgb(255,255,255)" stroke-width="1" opacity="0.49411764705882355" d="M 187.5 258 L 192 258.5 L 187.5 259 L 187.5 258 Z " /><path fill="rgb(255,255,255)" stroke="rgb(255,255,255)" stroke-width="1" opacity="0.49411764705882355" d="M 135.5 259 L 141 259.5 L 135.5 260 L 135.5 259 Z " /><path fill="rgb(255,255,255)" stroke="rgb(255,255,255)" stroke-width="1" opacity="0.49411764705882355" d="M 178.5 259 L 185 259.5 L 178.5 260 L 178.5 259 Z " /><path fill="rgb(255,255,255)" stroke="rgb(255,255,255)" stroke-width="1" opacity="0.49411764705882355" d="M 144.5 260 L 175 260.5 L 144.5 261 L 144.5 260 Z " /><path fill="rgb(255,255,255)" stroke="rgb(255,255,255)" stroke-width="1" opacity="0.49411764705882355" d="M 55.5 269 L 58.5 273 L 55.5 269 Z " /><path fill="rgb(255,255,255)" stroke="rgb(255,255,255)" stroke-width="1" opacity="0.49411764705882355" d="M 59.5 274 L 86.5 304 Q 87.8 301.8 89 304.5 L 90 306.5 L 88.5 307 Q 71.7 291.5 59.5 274 Z " /><path fill="rgb(255,255,255)" stroke="rgb(255,255,255)" stroke-width="1" opacity="0.49411764705882355" d="M 70.5 274 L 74 279.5 L 72 278.5 L 70.5 274 Z " /><path fill="rgb(255,255,255)" stroke="rgb(255,255,255)" stroke-width="1" opacity="0.49411764705882355" d="M 75.5 283 L 78 286.5 L 76 285.5 L 75.5 283 Z " /><path fill="rgb(255,255,255)" stroke="rgb(255,255,255)" stroke-width="1" opacity="0.49411764705882355" d="M 78.5 288 L 81 291.5 L 79 290.5 L 78.5 288 Z " /><path fill="rgb(255,255,255)" stroke="rgb(255,255,255)" stroke-width="1" opacity="0.49411764705882355" d="M 81.5 293 L 84 296.5 L 82 295.5 L 81.5 293 Z " /><path fill="rgb(255,255,255)" stroke="rgb(255,255,255)" stroke-width="1" opacity="0.49411764705882355" d="M 84.5 298 L 87 301.5 L 85 300.5 L 84.5 298 Z " /><path fill="rgb(255,255,255)" stroke="rgb(255,255,255)" stroke-width="1" opacity="1" d="M 65.5 0 L 71.5 0 L 80.5 4 L 91 14.5 Q 111.2 43.3 136.5 67 Q 159.3 88.7 186.5 106 L 203.5 115 L 240.5 128 L 256.5 136 Q 270.1 143.4 280 154.5 L 287 166.5 Q 289.4 173.6 288 184.5 L 281 199.5 L 258.5 224 Q 236.9 243.9 206.5 255 L 177.5 260 L 141.5 260 L 140.5 259 L 128.5 258 L 112.5 253 Q 97.3 245.7 87 233.5 Q 74.1 220.4 76 192.5 Q 80.1 177.1 88 165.5 L 111.5 135 L 112 136.5 Q 106.5 148 104 162.5 L 103 184.5 L 108 199.5 L 114.5 207 Q 121.5 213 132.5 215 L 152.5 215 Q 180.5 209.5 195 190.5 L 200 180.5 L 200 173.5 L 197 166.5 L 186 154.5 L 128.5 96 Q 113 82 93.5 72 L 81.5 68 L 68.5 68 Q 53.6 72.6 45 83.5 L 37 96.5 L 32 112.5 L 29 129.5 L 29 136.5 L 28 137.5 L 28 155.5 L 29 156.5 L 29 164.5 L 30 165.5 L 31 176.5 L 35 192.5 L 48 229.5 Q 65 270 88 304.5 L 80 297.5 Q 41.3 258.2 16 205.5 L 6 178.5 L 2 160.5 L 1 142.5 L 0 141.5 L 0 114.5 L 1 113.5 L 1 100.5 L 2 99.5 L 3 85.5 L 11 55.5 Q 20.9 29.4 40.5 13 Q 50 3.5 65.5 0 Z " /></svg>