<?xml version="1.0" encoding="UTF-8"?>
<svg id="_레이어_3" data-name="레이어 3" xmlns="http://www.w3.org/2000/svg" viewBox="0 0 1921 1081">
  <defs>
    <style>
      .cls-1 {
        stroke: #000;
        stroke-miterlimit: 10;
      }
    </style>
  </defs>
  <path class="cls-1" d="M.5.5v1080h1920V.5H.5ZM1678.66,676c-10.16,40.97-39.01,65.02-71.02,90.96-16.97,13.76-46.97,37.65-93.79,55.08-20.71,7.71-129.9,48.36-224.9-3.24-18.67-10.14-51.96-28.83-67.15-67.15-9.85-24.85-7.68-46.99-6.47-59.06,7.33-73.21,64.6-117.2,79.28-127.82-29.85,70.13-24.89,136.34,8.9,161.8,15.7,11.83,36.49,13.57,47.73,14.56,49.23,4.32,84.7-22.86,91.94-28.67,14.01-11.24,35.98-28.87,39.65-53.9,4.5-30.65-22.13-47.32-112.99-133.43-35.97-34.09-109.23-104.86-160.25-106.8-13.39-.51-25.01,3.25-25.01,3.25-26.95,8.72-41.22,32.3-47.35,42.42-34.15,56.43-23.17,152.66-22.04,161.87,10.09,82.13,38.19,142.42,64.54,197.78,23.93,50.27,47.98,89.78,65.53,116.49-53.19-45.54-125.5-122.41-167.46-235.42-25.53-68.76-29.71-123.63-30.74-142.38-5.62-102.19,24.41-182.54,54.2-226.52,10.98-16.21,29.97-39.35,59.87-55.82,12.98-7.15,24.47-13.48,38.72-12.87,31.57,1.37,52.55,35.77,68.87,58.98,0,0,32.12,45.67,116.49,117.3,50.6,42.96,101.82,66.46,173.51,99.36,63.66,29.21,109.84,43.44,121.58,84.28,5.62,19.56,1.15,37.59-1.66,48.92Z"/>
</svg>